<?xml version="1.0" encoding="UTF-8"?>
<!DOCTYPE svg PUBLIC "-//W3C//DTD SVG 1.1//EN" "http://www.w3.org/Graphics/SVG/1.1/DTD/svg11.dtd">
<!-- Creator: CorelDRAW 2021.5 -->
<svg xmlns="http://www.w3.org/2000/svg" xml:space="preserve" width="9.13907in" height="1.092in" version="1.1" style="shape-rendering:geometricPrecision; text-rendering:geometricPrecision; image-rendering:optimizeQuality; fill-rule:evenodd; clip-rule:evenodd"
viewBox="0 0 9135.74 1091.61"
 xmlns:xlink="http://www.w3.org/1999/xlink"
 xmlns:xodm="http://www.corel.com/coreldraw/odm/2003">
 <defs>
  <style type="text/css">
   <![CDATA[
    .fil0 {fill:#237795}
   ]]>
  </style>
 </defs>
 <g id="Layer_x0020_1">
  <metadata id="CorelCorpID_0Corel-Layer"/>
  <g id="_105553165366720">
   <path class="fil0" d="M6667.95 664.21c-176.35,0 -132.76,-58.79 -122.81,-222.45 85.62,-48.82 229.72,-64.92 229.72,53.28 0,74.65 10.67,169.17 -106.91,169.17zm-223.48 427.39l-40.91 0c-38.73,-4.35 -79.24,-19.47 -109.78,-35.62l14.06 -199.64c20.48,-135.3 12.66,-478.71 12.66,-619.51 52.47,-12.22 133.57,-45.61 189.31,-11.13 35.72,22.09 15.12,3.01 24.5,28.93 26.52,-2.2 236.9,-118.81 394.56,33.05 121.71,117.24 85.72,354.26 0.39,468.51 -36.59,48.99 -127.66,121.7 -207.86,121.7 -144.01,0 -99.88,-15.31 -187.09,-35.62 0,67.61 2.46,119.67 -10.59,176.39 -10.89,47.34 -41.77,67.94 -79.25,72.92z"/>
   <path class="fil0" d="M2988.54 477.24c0,123.95 -17.93,251.82 59.72,332.08 70.47,72.85 138.07,68.59 225.37,68.59 69.68,0 102.48,-35.51 142.54,-62.32 17.4,74.66 70.49,71.23 133.64,71.23 67.74,0 85.17,-35.86 124.72,-62.33 -10.35,-44.37 -35.64,-81.31 -35.64,-142.46 0,-83.51 2.59,-152.35 8.44,-223.06 2.92,-35.26 0.12,-79.39 0.17,-115.59 0.06,-51.55 9.21,-61.97 9.21,-106.54 -68.62,-32.91 -204.41,-45.42 -229.34,20.1l-20.24 246.89c0.26,44.56 0.12,89.12 0.12,133.68 -271.11,143.37 -169.27,-148.78 -169.27,-400.67 -68.26,-15.89 -18.17,-26.71 -142.54,-26.71 -110.5,0 -106.91,171.28 -106.91,267.11z"/>
   <path class="fil0" d="M4948.52 432.72c0,268.64 -38.84,445.19 285.08,445.19 31.06,0 55.12,-8.54 77.62,-20.37 37.18,-19.55 29.31,-32.45 64.93,-41.95 6.15,73.9 79.5,71.23 133.63,71.23 67.75,0 85.18,-35.86 124.73,-62.33 -6.92,-29.67 -13.59,-29.73 -22.59,-57.55 -27.12,-83.88 -4.14,-409.91 -4.14,-539 -15.33,-1.27 -176.96,-53.39 -223.15,26.29 -15.71,27.1 -5.27,82.97 -9.78,123.78 -8.7,78.57 -7.61,167.93 -7.61,259.51 -66.17,17.66 -5.77,35.61 -142.54,35.61 -29.46,0 -31.39,-16.97 -36.63,-43.52 -20.95,-106.12 9.9,-299.67 9.9,-392.76 -78.69,-18.32 -195.15,-75.54 -233.23,51.82 -9.89,33.07 -16.21,97.1 -16.21,144.06z"/>
   <path class="fil0" d="M7255.94 682.03c0,-102.78 131.14,-79.51 204.91,-62.32l0 97.94c-12.81,1.06 -204.91,56.16 -204.91,-35.62zm-169.27 -373.96c0,199.41 198.06,71.23 276.18,71.23 26.72,0 59.64,17.79 74,32.89 20.17,21.19 24,44.58 24,82.86 -88.23,-1.96 -155.76,-37.44 -286.54,7.47 -198.22,68.06 -179.95,384.3 81.63,384.3 198.31,0 173.63,-35.62 213.82,-35.62 32.45,0 60.9,80.87 213.82,0 -50.01,-214.51 24.88,-385.27 -32.5,-519.55 -100,-233.97 -564.4,-88.76 -564.4,-23.57z"/>
   <path class="fil0" d="M2293.64 85.47l-26.73 783.53c273.51,0 677.08,94.21 677.08,-115.75 0,-31.5 0.55,-64.89 -14.27,-93.16 -14.56,-27.75 -15.48,-17.64 -47.96,-15.36l-338.67 10.58c0,-97.75 9.39,-171.46 8.79,-276.13 -0.34,-59.94 8.74,-80.82 9.38,-133.09 0.59,-47.25 -0.35,-95.43 -0.35,-142.81 -73.23,-35.12 -185.7,-36.8 -267.26,-17.81z"/>
   <path class="fil0" d="M3683.44 236.84c13.69,58.73 35.68,126.1 57.33,183.11l139.21 404.01c13.52,32.8 0.01,18.93 29.15,33.2 51.38,25.15 135.19,20.76 193.04,20.76 108.28,0 99.73,-26.33 125.86,-105.71 27.82,-84.53 172.9,-476.7 177.04,-526.46 -49.4,-4.1 -204.03,-72.81 -246.37,29.79 -19.96,48.36 -85.72,302.16 -109.4,353.66 -8.33,18.11 -2.96,7.84 -9.48,17.22 -19.47,-83.51 -46.92,-172.98 -74.63,-254.86 -38.46,-113.61 -27.6,-181.42 -165.92,-181.42 -42.6,0 -87.33,13.05 -115.82,26.71z"/>
   <path class="fil0" d="M8583.38 432.72c0,149.39 141.43,183.44 257.47,205.68 53.34,10.22 93.75,-0.28 98.89,61.43 -117.1,61.93 -210.1,-44.52 -294,-44.52 -1.1,0 -204.75,63.72 20.69,184.11 180.35,96.32 469.31,47.96 469.31,-139.6 0,-105.86 -3.09,-159.52 -132.33,-206.1 -37.12,-13.38 -65.5,-20.22 -114.56,-27.96 -30.45,-4.81 -100.56,-4.4 -100.56,-41.96 0,-88.17 154.57,-8.9 204.91,-8.9 23.65,0 59.98,-18.48 76.78,-30.11 182.1,-126.03 -219.57,-242.8 -408.66,-123.5 -48.54,30.62 -77.94,96.97 -77.94,171.41z"/>
   <path class="fil0" d="M4511.97 281.35l-89.09 0c-45.36,194.58 28.99,153.53 80.18,178.08 0,77.9 -10.52,119.46 -9.3,196.22 0.78,47.92 8.25,52.66 9.59,97.32 1.04,34.68 -0.29,72.11 -0.29,107.14 53.74,28.41 222.72,62.65 222.72,-44.52l0 -356.15c152.12,0 151.45,-66.2 151.45,-178.08l-142.54 0c13.01,-156.25 156.17,-98.31 196,-89.03 16.12,-69.16 58.71,-148.91 -91.1,-185.09 -59.88,-14.47 -112.49,-5.59 -170.88,12.29 -89.99,27.57 -154.25,150.22 -156.74,261.83z"/>
   <path class="fil0" d="M5705.78 245.74c0,112.84 13.73,184.5 1.31,295.13l-10.21 310.33c58.95,31.18 172.71,50.17 215.53,-16.08 30.16,-46.67 25.01,-278.37 25.01,-348.97 51.52,-13.75 91.75,-64.04 179.53,-28.19 31.95,13.04 26.01,19.62 52.1,37.08 76.91,-51.47 71.27,-84.39 71.27,-169.17 0,-92.53 -131.34,-137.8 -230.46,-96.77 -26.86,11.11 -54.93,28.95 -63.54,61.16l-17.82 0c-9.07,-108.83 -155.2,-80.23 -222.73,-44.52z"/>
   <path class="fil0" d="M7870.66 744.35c0,157.59 133.22,142.46 249.46,142.46 48.35,0 151.21,-3.67 190.95,-13.95 243.3,-62.91 -44.96,-466.86 -182.05,-466.86 -142.79,0 -258.36,272.46 -258.36,338.34z"/>
   <path class="fil0" d="M8173.57 263.55c0,144.03 164.62,177.08 198.05,-25.4 32.5,-196.87 -198.05,-209.68 -198.05,25.4z"/>
   <path class="fil0" d="M7906.3 227.93c0,55.5 -3.39,94.93 40.26,137.84 111.32,109.44 204.37,-26.49 128.98,-173.43 -52.23,-101.79 -169.25,-40.66 -169.25,35.59z"/>
   <path class="fil0" d="M7737.03 441.63c0,230.16 277.05,149.31 172.85,-39.2 -50.82,-91.93 -172.85,-44.03 -172.85,39.2z"/>
   <path class="fil0" d="M8342.84 468.34c0,95.92 196,58.94 196,-80.14 0,-34.56 -11.58,-52.84 -38.18,-68.69 -79.79,-47.56 -157.82,73.9 -157.82,148.83z"/>
  </g>
  <g id="_105553165501024">
   <path class="fil0" d="M577.21 445.22c0,-38.32 -2.66,-54.22 34.2,-85.5 45.7,-38.79 150.63,-38.49 208.27,13.13 76.41,68.44 77.75,130.27 113.75,166.37 34.5,34.6 61.13,32.93 106.04,28.1 11.28,-1.22 18.78,-3.98 28.73,-4.81 0,38.21 16.11,73.43 50.29,81.38 0,19.51 -6.76,37.35 -12.31,52.32 -18.39,49.55 -83.2,105.66 -95.46,105.66 -35.01,0 -56.42,-4.79 -69.45,-4.79 -1.43,0 -4.97,3.31 -7.19,4.79 4.15,15.53 36.88,19.15 52.69,19.15 -1.48,1.28 -3.25,2.83 -5.17,4.4l-46.47 30.15c-12.82,7.72 -45.03,26.93 -58.53,30.07 4.84,-20.78 16.68,-48 12.2,-74.24 -7.15,-41.98 -61.56,-27.82 -96.88,-17.56l-109.32 29.57c0.69,-30.92 18.85,-52.32 -22.3,-121.33 -7.24,-12.14 -13.88,-22.05 -21.28,-33.79l-30.37 -53.43c-11.51,-26.97 -14.59,-33.93 -21.29,-64.89 -6.35,-29.33 -10.15,-70.36 -10.15,-104.75zm832.89 -445.22l9.88 0c3.64,0.97 1.97,3.64 6.56,5.69 17.51,7.84 164.55,-12.79 300.31,37.36 97.04,35.85 168.14,107.56 200.86,206.18 20.56,61.96 21.82,82.21 21.86,145.08l0 3.03c0,63.73 -32.41,130.37 -60.19,167.23 -14.53,19.27 -36.11,43.41 -54.74,57.79l-65.66 46.88c-95.16,62.76 -245.06,97.74 -351.1,41.66 -0.24,10.83 -2.4,9.51 -2.4,21.54 0,83.53 8.86,127.84 41.48,193.11 12.57,25.16 36.53,56.96 54.89,76.8 25.06,27.08 55.4,44.42 9.06,65.24 -36.23,16.28 -87.13,2.06 -118.1,-11.31 -12.76,-5.51 -21.59,-10.74 -32.36,-17.93 -71.59,-47.78 -107.43,-129.29 -136.08,-211.08 -39.54,-112.92 -46.42,-188.08 -46.42,-310.26 0,-80.89 25.1,-201.47 49.97,-275.59l29.06 -78.67c-10.49,0.87 -21.85,5.18 -32.5,8.22 -53.61,15.31 -99.61,25.05 -150.36,50.79 -78.92,40.02 -108.14,109.37 -125.11,193.32l-10.57 68.42c0,3.38 20.79,43.08 52.69,43.08 17.22,0 59.03,-5.19 71.32,-10.11 5.23,-2.09 18.44,-12.23 24.46,-16.25 24.18,-16.18 52.3,-18.92 69.14,7.55 20.74,32.58 11.78,83.61 4.13,118.34 -17.64,80.09 -24.45,113.27 -78.61,167.98l-33.5 28.75c-16,13.04 -53.97,41.65 -71.3,50.82 4.77,20.46 29.15,70.03 39.95,89.33 19.8,35.38 39.09,60.2 39.09,99.76 0,19.6 -55.42,14.36 -76.64,14.36 -73.2,0 -153.19,-37.79 -170.05,-110.11l-32.48 27.38c-34.46,26.13 -74.12,45.71 -115.3,61.9 -121.11,47.6 -334.04,47.06 -449.99,-1.71 -71.49,-30.07 -102.77,-61.22 -134.32,-124.27 -21.57,-43.12 -23.63,-48.12 -36.72,-94.95 -9.66,-34.53 -16.92,-66.78 -24.55,-104.72 -7.19,-35.8 -11.62,-71.89 -17.2,-112.07 -4.29,-30.92 -7.32,-76.95 -8.55,-123.92l0 -88.81c0.71,-23.04 2.05,-43.63 4.1,-59.47 3.16,-24.35 3.8,-47.17 7.51,-69.09 19.28,-113.87 27.18,-193.47 139.3,-243.76 28.64,-12.85 41.42,-16.78 71.82,-16.78 55.09,0 38.55,66.91 34.85,92.27 -16.66,114 -14.46,242.87 0.93,355.48 4.05,29.63 26.34,124.82 26.49,126.71l9.85 -38.03c11.25,-38.2 20.89,-59.56 43.31,-93.15 35.39,-53.04 94.99,-98.65 155.2,-122.55 22.64,-8.98 42.1,-15.82 68.49,-22.51 27.16,-6.89 47.31,-6.23 55.34,-9.13 61.64,-22.28 90.85,-23.75 154,-9.04 0.68,-30.51 37.93,-115.29 51.3,-137.83 32.43,-54.67 44.44,-66.53 99.91,-89.25 89.4,-36.62 210.45,-67.34 311.04,-67.34 56.44,0 112.2,7.29 166.64,-1.06 4.05,-0.62 7.34,-1.05 10.02,-1.33zm-768.22 777.93c0,24.69 1.09,37.1 -17.28,59.33 -25.31,30.63 -74.41,57.96 -119.24,57.96 -48.36,0 -71.18,0.39 -112.62,-31.07 -80.79,-61.34 -86.33,-248.94 -36.68,-347.93 25.09,-50.03 61.71,-87.41 109.32,-115.74 14.74,-8.78 60.08,-32.74 78.29,-34.26 -1.62,19.49 -19.9,49.34 -12.33,117.64 1.24,11.18 -0.09,20.48 1.65,31.86 4.91,32.07 4.82,48.73 16.88,83.65 6.43,18.59 38.17,69.84 48.41,85.67 16.28,25.16 43.58,65.37 43.58,92.88zm907.72 -670.22c52.18,27.6 120.62,96.17 156.03,143.27 57.17,76.06 106.9,213.8 61.93,313.91 -12.28,27.33 -24.74,44.2 -47.33,62.81 -20.22,16.66 -44.65,27.89 -72.9,34.86 -57.07,14.09 -94.6,18.69 -152.64,12.27 -11.43,-1.26 -18.89,-4.61 -31.31,-4.61 2.34,-8.75 1.4,-5.56 8.42,-10.74 27.31,-20.16 58.64,-48.83 58.64,-87.4l0 -26.33 -71.93 -2.32c-13.21,-1.09 -20.05,-3.94 -31.06,-4.86 2.17,-2.96 43.21,-27.22 22.77,-25.18 -15.3,1.52 -29.83,34.2 -73.46,4.04 -18.29,-12.64 -28.37,-24.03 -37.25,-46.55 -7.49,-19 -17.62,-41.75 -22.23,-61.56 8.7,-2.02 34.1,-15.27 41.77,-20.49 37.47,-25.5 33.06,-61.34 43.62,-80.88 7.07,-13.08 19.57,-24.71 30.14,-34.5l35.35 -26.91c13.09,-8.69 25.44,-16.25 39.73,-24.92 56.1,-34.04 41.71,-85.53 41.71,-113.9z"/>
   <path class="fil0" d="M752.04 596.02c55.32,0 51.94,-83.78 0,-83.78 -51.48,0 -57.97,83.78 0,83.78z"/>
   <path class="fil0" d="M1475.34 356.66c18.76,9.92 37.23,14.25 54.57,-0.52 9.17,-7.81 7.71,-14.91 7.71,-30.6 8.02,-4.24 6.76,-1.79 11.97,-9.58 -29.85,0 -71.82,11.57 -74.24,40.69z"/>
   <path class="fil0" d="M668.22 521.82c0,15.77 -0.93,5.26 2.4,11.97 10.11,-6.77 8.18,-13.61 23.35,-26.93 8.62,-7.56 24.06,-15.47 29.34,-23.34 -22.24,-12.49 -55.09,21.39 -55.09,38.3z"/>
   <path class="fil0" d="M1365.17 457.19l0 2.4c5.73,0 8.77,1.55 16.69,2.46 6.66,0.77 10.93,1.68 18.28,3.28 13.74,2.98 19.54,5.64 29.69,11.01 -3.71,-13.9 -35.86,-21.54 -50.29,-21.54 -11.17,0 -3.2,2.39 -14.37,2.39z"/>
   <path class="fil0" d="M1367.57 435.64c31.69,-2.63 31.64,-9.36 71.85,0 -10.13,-13.81 -61.73,-13.81 -71.85,0z"/>
   <path class="fil0" d="M1353.2 430.86c6.3,-1.46 55.63,-31.12 74.25,-31.12l0 -2.39c-20.45,0 -63.39,17.31 -74.25,33.51z"/>
  </g>
 </g>
</svg>
