<?xml version="1.0" encoding="UTF-8"?>
<!DOCTYPE svg PUBLIC "-//W3C//DTD SVG 1.1//EN" "http://www.w3.org/Graphics/SVG/1.1/DTD/svg11.dtd">
<!-- Creator: CorelDRAW 2021.5 -->
<svg xmlns="http://www.w3.org/2000/svg" xml:space="preserve" width="6.87134in" height="1.092in" version="1.1" style="shape-rendering:geometricPrecision; text-rendering:geometricPrecision; image-rendering:optimizeQuality; fill-rule:evenodd; clip-rule:evenodd"
viewBox="0 0 10248.74 1628.74"
 xmlns:xlink="http://www.w3.org/1999/xlink"
 xmlns:xodm="http://www.corel.com/coreldraw/odm/2003">
 <defs>
  <style type="text/css">
   <![CDATA[
    .fil0 {fill:#237795}
   ]]>
  </style>
 </defs>
 <g id="Layer_x0020_1">
  <metadata id="CorelCorpID_0Corel-Layer"/>
  <g id="_105553165425024">
   <path class="fil0" d="M6566.63 991.05c-263.12,0 -198.09,-87.71 -183.25,-331.92 127.75,-72.85 342.76,-96.87 342.76,79.5 0,111.38 15.91,252.41 -159.52,252.41zm-333.45 637.69l-61.04 0c-57.79,-6.49 -118.23,-29.04 -163.8,-53.14l20.98 -297.88c30.56,-201.87 18.9,-714.26 18.9,-924.34 78.29,-18.23 199.3,-68.05 282.47,-16.61 53.29,32.97 22.55,4.49 36.56,43.17 39.57,-3.28 353.47,-177.27 588.71,49.32 181.6,174.92 127.9,528.57 0.58,699.05 -54.59,73.1 -190.48,181.58 -310.14,181.58 -214.88,0 -149.02,-22.84 -279.15,-53.14 0,100.88 3.68,178.56 -15.81,263.18 -16.25,70.64 -62.33,101.38 -118.25,108.8z"/>
   <path class="fil0" d="M1076.71 712.07c0,184.94 -26.75,375.73 89.1,495.49 105.15,108.69 206.01,102.33 336.27,102.33 103.96,0 152.9,-52.99 212.68,-92.99 25.96,111.4 105.17,106.28 199.39,106.28 101.08,0 127.08,-53.5 186.09,-93 -15.44,-66.2 -53.18,-121.32 -53.18,-212.56 0,-124.61 3.86,-227.32 12.6,-332.82 4.36,-52.61 0.18,-118.46 0.25,-172.47 0.09,-76.92 13.75,-92.47 13.75,-158.96 -102.39,-49.1 -305,-67.78 -342.19,29.99l-30.19 368.38c0.38,66.48 0.18,132.97 0.18,199.45 -404.51,213.92 -252.56,-222 -252.56,-597.82 -101.85,-23.71 -27.11,-39.85 -212.68,-39.85 -164.87,0 -159.52,255.55 -159.52,398.55z"/>
   <path class="fil0" d="M4001.13 645.65c0,400.83 -57.95,664.25 425.36,664.25 46.34,0 82.24,-12.74 115.82,-30.39 55.47,-29.17 43.74,-48.42 96.88,-62.6 9.18,110.27 118.62,106.28 199.38,106.28 101.09,0 127.09,-53.5 186.11,-93 -10.33,-44.27 -20.28,-44.36 -33.71,-85.87 -40.46,-125.15 -6.17,-611.61 -6.17,-804.22 -22.87,-1.9 -264.03,-79.66 -332.96,39.22 -23.45,40.43 -7.86,123.79 -14.6,184.68 -12.98,117.23 -11.35,250.56 -11.35,387.21 -98.73,26.35 -8.61,53.14 -212.68,53.14 -43.95,0 -46.83,-25.32 -54.66,-64.94 -31.26,-158.34 14.77,-447.12 14.77,-586.02 -117.41,-27.34 -291.17,-112.7 -348,77.32 -14.76,49.34 -24.19,144.88 -24.19,214.95z"/>
   <path class="fil0" d="M7443.96 1017.63c0,-153.35 195.67,-118.63 305.74,-92.99l0 146.13c-19.12,1.59 -305.74,83.8 -305.74,-53.14zm-252.57 -557.97c0,297.53 295.51,106.28 412.08,106.28 39.87,0 88.98,26.55 110.41,49.07 30.1,31.62 35.81,66.51 35.81,123.63 -131.65,-2.92 -232.4,-55.86 -427.53,11.14 -295.76,101.55 -268.5,573.41 121.79,573.41 295.88,0 259.07,-53.14 319.03,-53.14 48.42,0 90.86,120.66 319.03,0 -74.61,-320.07 37.13,-574.85 -48.49,-775.21 -149.2,-349.1 -842.13,-132.43 -842.13,-35.17z"/>
   <path class="fil0" d="M39.88 127.53l-39.88 1169.08c408.09,0 1010.25,140.57 1010.25,-172.7 0,-46.99 0.83,-96.82 -21.3,-139 -21.72,-41.4 -23.1,-26.32 -71.56,-22.92l-505.32 15.78c0,-145.85 14.01,-255.84 13.11,-412.01 -0.51,-89.43 13.04,-120.58 14,-198.58 0.87,-70.51 -0.53,-142.39 -0.53,-213.09 -109.26,-52.4 -277.08,-54.91 -398.78,-26.57z"/>
   <path class="fil0" d="M2113.55 353.38c20.43,87.62 53.24,188.15 85.54,273.21l207.71 602.8c20.17,48.94 0.02,28.24 43.49,49.53 76.66,37.53 201.72,30.98 288.03,30.98 161.56,0 148.8,-39.29 187.78,-157.73 41.5,-126.12 257.98,-711.26 264.16,-785.51 -73.71,-6.12 -304.43,-108.63 -367.61,44.45 -29.78,72.16 -127.9,450.84 -163.23,527.68 -12.43,27.02 -4.42,11.69 -14.15,25.7 -29.05,-124.6 -70,-258.1 -111.35,-380.27 -57.39,-169.52 -41.18,-270.69 -247.56,-270.69 -63.57,0 -130.31,19.47 -172.81,39.85z"/>
   <path class="fil0" d="M9424.59 645.65c0,222.91 211.02,273.71 384.15,306.89 79.58,15.25 139.89,-0.42 147.55,91.65 -174.72,92.4 -313.48,-66.42 -438.66,-66.42 -1.64,0 -305.5,95.07 30.86,274.71 269.09,143.71 700.24,71.56 700.24,-208.29 0,-157.95 -4.6,-238.02 -197.44,-307.51 -55.39,-19.96 -97.73,-30.17 -170.94,-41.72 -45.43,-7.18 -150.04,-6.56 -150.04,-62.61 0,-131.55 230.63,-13.28 305.74,-13.28 35.29,0 89.5,-27.57 114.57,-44.92 271.71,-188.05 -327.62,-362.27 -609.74,-184.27 -72.43,45.69 -116.29,144.68 -116.29,255.75z"/>
   <path class="fil0" d="M3349.78 419.8l-132.92 0c-67.68,290.33 43.26,229.08 119.63,265.7 0,116.23 -15.7,178.24 -13.87,292.77 1.16,71.49 12.31,78.57 14.3,145.21 1.55,51.75 -0.43,107.59 -0.43,159.86 80.19,42.4 332.32,93.48 332.32,-66.43l0 -531.4c226.98,0 225.98,-98.77 225.98,-265.7l-212.68 0c19.41,-233.14 233.02,-146.68 292.44,-132.85 24.05,-103.18 87.6,-222.18 -135.93,-276.17 -89.34,-21.59 -167.84,-8.34 -254.97,18.34 -134.27,41.13 -230.15,224.13 -233.87,390.67z"/>
   <path class="fil0" d="M5131.01 366.66c0,168.37 20.49,275.29 1.95,440.35l-15.23 463.03c87.96,46.52 257.69,74.85 321.59,-24 45,-69.63 37.31,-415.35 37.31,-520.68 76.88,-20.52 136.9,-95.55 267.87,-42.06 47.66,19.46 38.8,29.28 77.74,55.33 114.75,-76.79 106.34,-125.92 106.34,-252.41 0,-138.06 -195.97,-205.6 -343.86,-144.39 -40.07,16.58 -81.96,43.2 -94.8,91.25l-26.58 0c-13.53,-162.38 -231.56,-119.71 -332.33,-66.43z"/>
   <path class="fil0" d="M8361.16 1110.62c0,235.13 198.77,212.57 372.2,212.57 72.14,0 225.62,-5.47 284.92,-20.81 363.03,-93.86 -67.09,-696.58 -271.63,-696.58 -213.06,0 -385.49,406.52 -385.49,504.83z"/>
   <path class="fil0" d="M8813.12 393.23c0,214.9 245.63,264.22 295.5,-37.9 48.49,-293.74 -295.5,-312.86 -295.5,37.9z"/>
   <path class="fil0" d="M8414.33 340.09c0,82.81 -5.06,141.64 60.07,205.67 166.1,163.3 304.94,-39.53 192.45,-258.77 -77.92,-151.87 -252.52,-60.67 -252.52,53.1z"/>
   <path class="fil0" d="M8161.77 658.93c0,343.42 413.37,222.78 257.9,-58.49 -75.82,-137.16 -257.9,-65.7 -257.9,58.49z"/>
   <path class="fil0" d="M9065.68 698.79c0,143.12 292.44,87.94 292.44,-119.57 0,-51.56 -17.28,-78.84 -56.96,-102.49 -119.05,-70.96 -235.48,110.27 -235.48,222.06z"/>
  </g>
 </g>
</svg>
