<?xml version="1.0" encoding="UTF-8"?>
<!DOCTYPE svg PUBLIC "-//W3C//DTD SVG 1.1//EN" "http://www.w3.org/Graphics/SVG/1.1/DTD/svg11.dtd">
<!-- Creator: CorelDRAW 2021.5 -->
<svg xmlns="http://www.w3.org/2000/svg" xml:space="preserve" width="1.95027in" height="1.092in" version="1.1" style="shape-rendering:geometricPrecision; text-rendering:geometricPrecision; image-rendering:optimizeQuality; fill-rule:evenodd; clip-rule:evenodd"
viewBox="0 0 416.03 232.95"
 xmlns:xlink="http://www.w3.org/1999/xlink"
 xmlns:xodm="http://www.corel.com/coreldraw/odm/2003">
 <defs>
  <style type="text/css">
   <![CDATA[
    .fil0 {fill:#237795}
   ]]>
  </style>
 </defs>
 <g id="Layer_x0020_1">
  <metadata id="CorelCorpID_0Corel-Layer"/>
  <g id="_105553149893056">
   <path class="fil0" d="M123.18 95.01c0,-8.18 -0.57,-11.57 7.3,-18.25 9.75,-8.28 32.14,-8.21 44.44,2.8 16.31,14.6 16.59,27.8 24.27,35.5 7.36,7.38 13.04,7.03 22.63,6 2.41,-0.26 4.01,-0.85 6.13,-1.03 0,8.15 3.44,15.67 10.73,17.37 0,4.16 -1.44,7.97 -2.63,11.16 -3.93,10.57 -17.75,22.55 -20.37,22.55 -7.47,0 -12.04,-1.02 -14.82,-1.02 -0.31,0 -1.06,0.71 -1.53,1.02 0.89,3.31 7.87,4.09 11.24,4.09 -0.31,0.27 -0.69,0.6 -1.1,0.94l-9.92 6.43c-2.74,1.65 -9.61,5.75 -12.49,6.42 1.03,-4.43 3.56,-10.24 2.6,-15.84 -1.53,-8.96 -13.14,-5.94 -20.67,-3.75l-23.33 6.31c0.15,-6.6 4.02,-11.16 -4.76,-25.89 -1.54,-2.59 -2.96,-4.71 -4.54,-7.21l-6.48 -11.4c-2.46,-5.76 -3.11,-7.24 -4.54,-13.85 -1.36,-6.26 -2.17,-15.02 -2.17,-22.35zm177.74 -95.01l2.11 0c0.78,0.21 0.42,0.78 1.4,1.22 3.74,1.67 35.12,-2.73 64.09,7.97 20.71,7.65 35.88,22.95 42.86,44 4.39,13.22 4.66,17.54 4.66,30.96l0 0.65c0,13.6 -6.92,27.82 -12.85,35.69 -3.1,4.11 -7.71,9.26 -11.68,12.33l-14.01 10c-20.31,13.39 -52.29,20.86 -74.92,8.89 -0.05,2.31 -0.51,2.03 -0.51,4.6 0,17.82 1.89,27.28 8.85,41.21 2.68,5.37 7.79,12.16 11.71,16.39 5.35,5.78 11.82,9.48 1.93,13.92 -7.73,3.47 -18.59,0.44 -25.2,-2.41 -2.72,-1.17 -4.61,-2.29 -6.91,-3.83 -15.28,-10.2 -22.93,-27.59 -29.04,-45.04 -8.44,-24.1 -9.91,-40.14 -9.91,-66.21 0,-17.26 5.36,-42.99 10.66,-58.81l6.2 -16.79c-2.24,0.19 -4.66,1.1 -6.93,1.75 -11.44,3.27 -21.26,5.35 -32.09,10.84 -16.84,8.54 -23.08,23.34 -26.7,41.25l-2.26 14.6c0,0.72 4.44,9.19 11.24,9.19 3.67,0 12.6,-1.11 15.22,-2.16 1.12,-0.45 3.94,-2.61 5.22,-3.47 5.16,-3.45 11.16,-4.04 14.76,1.61 4.43,6.95 2.51,17.84 0.88,25.25 -3.76,17.09 -5.22,24.17 -16.78,35.85l-7.15 6.14c-3.41,2.78 -11.52,8.89 -15.22,10.84 1.02,4.37 6.22,14.95 8.53,19.06 4.23,7.55 8.34,12.85 8.34,21.29 0,4.18 -11.83,3.06 -16.36,3.06 -15.62,0 -32.69,-8.06 -36.29,-23.5l-6.93 5.84c-7.35,5.58 -15.82,9.75 -24.6,13.21 -25.84,10.16 -71.28,10.04 -96.03,-0.37 -15.26,-6.42 -21.93,-13.06 -28.66,-26.52 -4.6,-9.2 -5.04,-10.27 -7.84,-20.26 -2.06,-7.37 -3.61,-14.25 -5.24,-22.35 -1.54,-7.64 -2.48,-15.34 -3.67,-23.91 -0.92,-6.6 -1.56,-16.42 -1.82,-26.45l0 -18.95c0.15,-4.92 0.44,-9.31 0.88,-12.69 0.67,-5.2 0.81,-10.07 1.6,-14.74 4.12,-24.3 5.8,-41.29 29.73,-52.02 6.11,-2.74 8.84,-3.58 15.33,-3.58 11.76,0 8.23,14.28 7.44,19.69 -3.55,24.33 -3.09,51.83 0.2,75.86 0.86,6.32 5.62,26.64 5.65,27.04l2.1 -8.11c2.4,-8.15 4.46,-12.71 9.24,-19.88 7.55,-11.32 20.27,-21.05 33.12,-26.15 4.83,-1.92 8.98,-3.38 14.62,-4.8 5.8,-1.47 10.1,-1.33 11.81,-1.95 13.15,-4.75 19.39,-5.07 32.86,-1.93 0.15,-6.51 8.09,-24.6 10.95,-29.41 6.92,-11.67 9.48,-14.2 21.32,-19.05 19.08,-7.81 44.91,-14.37 66.37,-14.37 12.04,0 23.94,1.56 35.56,-0.23 0.87,-0.13 1.57,-0.23 2.14,-0.28zm-163.94 166.01c0,5.27 0.23,7.92 -3.69,12.66 -5.4,6.54 -15.88,12.37 -25.45,12.37 -10.32,0 -15.19,0.08 -24.03,-6.63 -17.24,-13.09 -18.42,-53.12 -7.83,-74.25 5.35,-10.68 13.17,-18.65 23.33,-24.7 3.15,-1.87 12.82,-6.99 16.71,-7.31 -0.35,4.16 -4.25,10.53 -2.63,25.1 0.26,2.39 -0.02,4.37 0.35,6.8 1.05,6.84 1.03,10.4 3.6,17.85 1.37,3.97 8.15,14.9 10.33,18.28 3.47,5.37 9.3,13.95 9.3,19.82zm193.71 -143.02c11.14,5.89 25.74,20.52 33.3,30.57 12.2,16.23 22.81,45.63 13.22,66.99 -2.62,5.83 -5.28,9.43 -10.1,13.4 -4.32,3.55 -9.53,5.95 -15.56,7.44 -12.18,3.01 -20.19,3.99 -32.57,2.62 -2.44,-0.27 -4.03,-0.98 -6.68,-0.98 0.5,-1.87 0.3,-1.19 1.8,-2.29 5.83,-4.3 12.51,-10.42 12.51,-18.65l0 -5.62 -15.35 -0.5c-2.82,-0.23 -4.28,-0.84 -6.63,-1.04 0.46,-0.63 9.22,-5.81 4.86,-5.37 -3.27,0.32 -6.37,7.3 -15.68,0.86 -3.9,-2.7 -6.05,-5.13 -7.95,-9.93 -1.6,-4.06 -3.76,-8.91 -4.74,-13.14 1.86,-0.43 7.28,-3.26 8.91,-4.37 8,-5.44 7.05,-13.09 9.31,-17.26 1.51,-2.79 4.18,-5.27 6.43,-7.36l7.54 -5.74c2.79,-1.85 5.43,-3.47 8.48,-5.32 11.97,-7.26 8.9,-18.25 8.9,-24.31z"/>
   <path class="fil0" d="M160.48 127.19c11.8,0 11.08,-17.88 0,-17.88 -10.99,0 -12.37,17.88 0,17.88z"/>
   <path class="fil0" d="M314.84 76.11c4,2.12 7.95,3.04 11.64,-0.11 1.96,-1.67 1.64,-3.18 1.64,-6.53 1.71,-0.91 1.44,-0.38 2.55,-2.04 -6.37,0 -15.33,2.47 -15.84,8.68z"/>
   <path class="fil0" d="M142.6 111.35c0,3.37 -0.2,1.12 0.51,2.55 2.16,-1.44 1.75,-2.91 4.98,-5.75 1.84,-1.61 5.13,-3.3 6.26,-4.98 -4.75,-2.66 -11.76,4.57 -11.76,8.17z"/>
   <path class="fil0" d="M291.33 97.56l0 0.51c1.22,0 1.87,0.33 3.56,0.53 1.42,0.16 2.33,0.36 3.9,0.7 2.93,0.63 4.17,1.2 6.34,2.35 -0.79,-2.97 -7.65,-4.6 -10.73,-4.6 -2.38,0 -0.68,0.51 -3.07,0.51z"/>
   <path class="fil0" d="M291.84 92.97c6.76,-0.56 6.75,-2 15.33,0 -2.16,-2.95 -13.17,-2.95 -15.33,0z"/>
   <path class="fil0" d="M288.77 91.94c1.34,-0.31 11.87,-6.64 15.84,-6.64l0 -0.51c-4.36,0 -13.53,3.69 -15.84,7.15z"/>
  </g>
 </g>
</svg>
